<svg width="32" height="34" viewBox="0 0 32 34" fill="none" xmlns="http://www.w3.org/2000/svg">
<path d="M8 9.5C8 11.4891 8.84285 13.3969 10.343 14.8034C11.8434 16.2097 13.8782 17 16 17C18.1218 17 20.1566 16.2097 21.657 14.8034C23.157 13.3969 24 11.4891 24 9.5C24 7.51089 23.157 5.60323 21.657 4.19669C20.1566 2.79017 18.1218 2 16 2C13.8782 2 11.8434 2.79017 10.343 4.19669C8.84285 5.60323 8 7.51089 8 9.5Z" stroke="white" stroke-width="4" stroke-linecap="round" stroke-linejoin="round"/>
<path d="M2 32C2 28.5521 3.47501 25.2455 6.10051 22.8076C8.726 20.3696 12.2869 19 16 19C19.7131 19 23.2741 20.3696 25.8996 22.8076C28.525 25.2455 30 28.5521 30 32H2Z" stroke="white" stroke-width="4" stroke-linecap="round" stroke-linejoin="round"/>
</svg>
