<svg width="44" height="33" viewBox="0 0 44 33" fill="none" xmlns="http://www.w3.org/2000/svg">
<path d="M7 11.5C7 13.2239 7.68481 14.8773 8.90369 16.0963C10.1227 17.3151 11.7761 18 13.5 18C15.2239 18 16.8773 17.3151 18.0963 16.0963C19.3151 14.8773 20 13.2239 20 11.5C20 9.7761 19.3151 8.1228 18.0963 6.90379C16.8773 5.68481 15.2239 5 13.5 5C11.7761 5 10.1227 5.68481 8.90369 6.90379C7.68481 8.1228 7 9.7761 7 11.5Z" stroke="white" stroke-width="4" stroke-linecap="round" stroke-linejoin="round"/>
<path d="M2 31C2 28.0826 3.21161 25.2846 5.36827 23.2218C7.52493 21.1589 10.4499 20 13.5 20C16.5501 20 19.4751 21.1589 21.6318 23.2218C23.7884 25.2846 25 28.0826 25 31H2Z" stroke="white" stroke-width="4" stroke-linecap="round" stroke-linejoin="round"/>
<path d="M27 7.5C27 8.95871 27.5795 10.3577 28.6108 11.3892C29.6423 12.4205 31.0413 13 32.5 13C33.9587 13 35.3577 12.4205 36.3892 11.3892C37.4205 10.3577 38 8.95871 38 7.5C38 6.04132 37.4205 4.64237 36.3892 3.6109C35.3577 2.57946 33.9587 2 32.5 2C31.0413 2 29.6423 2.57946 28.6108 3.6109C27.5795 4.64237 27 6.04132 27 7.5Z" stroke="white" stroke-width="4" stroke-linecap="round" stroke-linejoin="round"/>
<path d="M23 23C23 20.613 24.0009 18.3238 25.7825 16.636C27.5641 14.9482 29.9804 14 32.5 14C35.0196 14 37.436 14.9482 39.2176 16.636C40.9991 18.3238 42 20.613 42 23H23Z" stroke="white" stroke-width="4" stroke-linecap="round" stroke-linejoin="round"/>
</svg>
